<svg aria-hidden="true" style="position: absolute; width: 0; height: 0; overflow: hidden;" version="1.1" xmlns="http://www.w3.org/2000/svg" xmlns:xlink="http://www.w3.org/1999/xlink">
<defs>
<symbol id="icon-hlegal" viewBox="0 0 68 32">
<path fill="#f0145a" style="fill: var(--color1, #f0145a)" d="M2.6 0h-2.6v18.78h2.6v-6.967c0-1.179 0.293-2.108 0.88-2.763s1.389-0.995 2.384-0.995c0.854 0 1.568 0.314 2.141 0.917 0.574 0.616 0.867 1.388 0.867 2.318v7.504h2.613v-7.504c0-1.729-0.472-3.091-1.415-4.112s-2.18-1.532-3.684-1.532c-0.433 0-0.867 0.052-1.287 0.17-0.433 0.118-0.778 0.249-1.058 0.393s-0.548 0.301-0.79 0.485c-0.242 0.183-0.408 0.314-0.484 0.393s-0.14 0.131-0.166 0.17v-7.255z"></path>
<path d="M17.297 0h-2.681v18.764h2.681v-18.764z"></path>
<path d="M33.108 13.268l0.134-1.34c0-1.796-0.59-3.297-1.796-4.503s-2.707-1.796-4.503-1.796-3.351 0.643-4.637 1.93c-1.287 1.287-1.93 2.815-1.93 4.637 0 1.876 0.67 3.485 1.984 4.825s2.895 2.010 4.718 2.010c0.697 0 1.34-0.107 1.984-0.295 0.643-0.214 1.179-0.429 1.555-0.643 0.402-0.241 0.804-0.509 1.153-0.804s0.59-0.509 0.697-0.643c0.107-0.134 0.188-0.214 0.241-0.295l-1.742-1.742-0.402 0.509c-0.268 0.322-0.724 0.643-1.367 0.992-0.67 0.348-1.367 0.509-2.118 0.509-1.045 0-1.93-0.322-2.681-0.992s-1.206-1.447-1.34-2.359h10.052zM26.942 7.907c0.992 0 1.796 0.295 2.466 0.858 0.643 0.59 1.045 1.313 1.206 2.225h-7.452c0.241-0.911 0.67-1.635 1.34-2.225 0.643-0.563 1.474-0.858 2.439-0.858z"></path>
<path d="M45.609 17.986c0 1.18-0.349 2.144-1.072 2.895-0.697 0.724-1.582 1.099-2.681 1.099-0.483 0-0.965-0.080-1.421-0.214s-0.804-0.295-1.099-0.483c-0.295-0.188-0.563-0.375-0.831-0.616-0.241-0.241-0.402-0.402-0.483-0.483s-0.134-0.161-0.188-0.214l-1.742 1.742 0.214 0.268c0.134 0.188 0.375 0.429 0.697 0.697 0.322 0.241 0.697 0.509 1.126 0.777 0.429 0.241 0.965 0.456 1.635 0.643s1.367 0.295 2.091 0.295c1.823 0 3.324-0.616 4.584-1.85 1.233-1.26 1.85-2.761 1.85-4.584v-12.063h-2.681v1.34l-0.456-0.402c-0.295-0.268-0.751-0.536-1.394-0.804s-1.34-0.402-2.037-0.402c-1.635 0-3.029 0.617-4.235 1.876s-1.796 2.761-1.796 4.557 0.59 3.297 1.796 4.557c1.206 1.26 2.6 1.876 4.235 1.876 0.456 0 0.885-0.054 1.34-0.161 0.429-0.134 0.777-0.268 1.072-0.402s0.563-0.295 0.804-0.482c0.241-0.188 0.429-0.322 0.483-0.375l0.188-0.188v1.099zM38.372 12.062c0-1.126 0.349-2.064 1.072-2.841s1.582-1.18 2.547-1.18 1.823 0.402 2.547 1.18c0.697 0.777 1.072 1.716 1.072 2.841s-0.375 2.064-1.072 2.841c-0.724 0.777-1.582 1.179-2.547 1.179s-1.823-0.402-2.547-1.179c-0.724-0.777-1.072-1.716-1.072-2.841z"></path>
<path d="M62.281 18.764v-8.31c0-1.367-0.509-2.52-1.501-3.431-0.992-0.938-2.279-1.394-3.86-1.394-0.616 0-1.233 0.080-1.822 0.241-0.59 0.188-1.072 0.375-1.421 0.59s-0.697 0.456-1.018 0.751c-0.322 0.268-0.509 0.456-0.617 0.563-0.080 0.107-0.161 0.188-0.214 0.268l1.742 1.742 0.348-0.456c0.215-0.295 0.59-0.563 1.153-0.858s1.179-0.429 1.849-0.429c0.777 0 1.421 0.241 1.93 0.697s0.751 1.045 0.751 1.716l-4.691 0.804c-1.153 0.188-2.091 0.643-2.734 1.367-0.67 0.724-1.019 1.608-1.019 2.654 0 0.992 0.429 1.85 1.287 2.6 0.884 0.777 1.957 1.153 3.27 1.153 0.456 0 0.884-0.054 1.314-0.188 0.455-0.107 0.804-0.241 1.099-0.375s0.563-0.295 0.804-0.483c0.241-0.188 0.402-0.322 0.509-0.375 0.080-0.080 0.134-0.161 0.161-0.188v1.34h2.681zM56.116 16.619c-0.697 0-1.26-0.161-1.662-0.482-0.429-0.322-0.616-0.697-0.616-1.126 0-0.456 0.134-0.858 0.429-1.153s0.697-0.509 1.179-0.59l4.155-0.67v0.268c0 1.206-0.295 2.118-0.911 2.788-0.616 0.643-1.475 0.965-2.574 0.965z"></path>
<path d="M68.197 0h-2.681v18.764h2.681v-18.764z"></path>
<path d="M0 27.865h0.839v2.941h1.818v0.684h-2.656v-3.625z"></path>
<path d="M8.132 30.714h-1.683l-0.321 0.777h-0.86l1.616-3.625h0.829l1.621 3.625h-0.88l-0.321-0.777zM7.868 30.077l-0.575-1.388-0.575 1.388h1.15z"></path>
<path d="M17.58 27.865l-1.186 3.625h-0.901l-0.797-2.454-0.823 2.454h-0.896l-1.191-3.625h0.87l0.818 2.548 0.854-2.548h0.777l0.829 2.568 0.844-2.568h0.803z"></path>
<path d="M26.504 31.552c-0.369 0-0.704-0.079-1.005-0.238-0.297-0.162-0.532-0.385-0.704-0.668-0.169-0.287-0.254-0.609-0.254-0.968s0.085-0.68 0.254-0.963c0.173-0.287 0.407-0.509 0.704-0.668 0.3-0.162 0.637-0.243 1.010-0.243 0.314 0 0.597 0.055 0.849 0.166 0.255 0.11 0.47 0.269 0.642 0.476l-0.539 0.497c-0.245-0.283-0.549-0.425-0.911-0.425-0.224 0-0.425 0.050-0.601 0.15-0.176 0.097-0.314 0.233-0.414 0.409-0.097 0.176-0.145 0.376-0.145 0.601s0.048 0.425 0.145 0.601c0.1 0.176 0.238 0.314 0.414 0.414 0.176 0.097 0.376 0.145 0.601 0.145 0.363 0 0.666-0.143 0.911-0.43l0.539 0.497c-0.173 0.211-0.387 0.371-0.642 0.482s-0.54 0.166-0.854 0.166z"></path>
<path d="M32.836 31.552c-0.376 0-0.716-0.081-1.020-0.243-0.3-0.162-0.537-0.385-0.709-0.668-0.169-0.287-0.254-0.608-0.254-0.963s0.085-0.675 0.254-0.958c0.173-0.287 0.409-0.511 0.709-0.673 0.304-0.162 0.644-0.243 1.020-0.243s0.715 0.081 1.015 0.243c0.3 0.162 0.537 0.387 0.709 0.673 0.173 0.283 0.259 0.602 0.259 0.958s-0.086 0.677-0.259 0.963c-0.173 0.283-0.409 0.506-0.709 0.668s-0.639 0.243-1.015 0.243zM32.836 30.838c0.214 0 0.407-0.048 0.58-0.145 0.173-0.1 0.307-0.238 0.404-0.414 0.1-0.176 0.15-0.376 0.15-0.601s-0.050-0.425-0.15-0.601c-0.097-0.176-0.231-0.312-0.404-0.409-0.173-0.1-0.366-0.15-0.58-0.15s-0.407 0.050-0.58 0.15c-0.173 0.097-0.309 0.233-0.409 0.409-0.097 0.176-0.145 0.376-0.145 0.601s0.048 0.425 0.145 0.601c0.1 0.176 0.237 0.314 0.409 0.414 0.173 0.097 0.366 0.145 0.58 0.145z"></path>
<path d="M41.337 31.49l-0.005-2.175-1.067 1.792h-0.378l-1.062-1.745v2.128h-0.787v-3.625h0.694l1.357 2.253 1.336-2.253h0.689l0.010 3.625h-0.787z"></path>
<path d="M47.143 27.865c0.321 0 0.599 0.053 0.834 0.161 0.238 0.107 0.421 0.259 0.549 0.456s0.192 0.43 0.192 0.699c0 0.266-0.064 0.499-0.192 0.699-0.128 0.197-0.311 0.349-0.549 0.456-0.235 0.104-0.513 0.155-0.834 0.155h-0.73v0.999h-0.839v-3.625h1.569zM47.096 29.807c0.252 0 0.444-0.053 0.575-0.161 0.131-0.11 0.197-0.266 0.197-0.466 0-0.204-0.066-0.359-0.197-0.466-0.131-0.11-0.323-0.166-0.575-0.166h-0.684v1.258h0.684z"></path>
<path d="M54.11 30.714h-1.683l-0.321 0.777h-0.86l1.616-3.625h0.828l1.621 3.625h-0.88l-0.321-0.777zM53.846 30.077l-0.574-1.388-0.575 1.388h1.149z"></path>
<path d="M61.602 27.865v3.625h-0.689l-1.807-2.201v2.201h-0.829v-3.625h0.694l1.802 2.201v-2.201h0.829z"></path>
<path d="M66.788 30.206v1.284h-0.839v-1.295l-1.403-2.33h0.891l0.968 1.61 0.968-1.61h0.824l-1.409 2.341z"></path>
</symbol>
<symbol id="icon-slash" viewBox="0 0 14 32">
<path fill="#f0145a" style="fill: var(--color1, #f0145a)" d="M10.332 0h3.966l-10.332 32h-3.966l10.332-32z"></path>
</symbol>
</defs>
</svg>
